<svg width="16" height="12" viewBox="0 0 16 12" fill="none" xmlns="http://www.w3.org/2000/svg">
<path d="M10.5 6C9.8575 6 9.23625 5.71313 8.75 5.1925C8.27719 4.68469 7.98844 4.0075 7.9375 3.28625C7.88312 2.51688 8.11781 1.80938 8.59812 1.29375C9.07844 0.778125 9.75 0.5 10.5 0.5C11.2447 0.5 11.9181 0.783125 12.3969 1.2975C12.8803 1.81687 13.1156 2.52312 13.0613 3.28594C13.0091 4.00812 12.7206 4.685 12.2488 5.19219C11.7638 5.71312 11.1428 6 10.5 6ZM14.6197 11.5H6.38062C6.24816 11.5007 6.11729 11.471 5.99811 11.4132C5.87892 11.3554 5.77458 11.271 5.69312 11.1666C5.60672 11.0533 5.54705 10.922 5.51858 10.7824C5.49012 10.6429 5.49359 10.4987 5.52875 10.3606C5.79187 9.30406 6.44375 8.42781 7.41375 7.82687C8.27469 7.29375 9.37062 7 10.5 7C11.6516 7 12.7188 7.28125 13.5847 7.81406C14.5569 8.41187 15.2097 9.29313 15.4716 10.3625C15.5063 10.5006 15.5094 10.6448 15.4806 10.7843C15.4518 10.9238 15.3919 11.055 15.3053 11.1681C15.2239 11.2721 15.1198 11.3561 15.001 11.4136C14.8822 11.4711 14.7517 11.5007 14.6197 11.5ZM4.59375 6.125C3.49406 6.125 2.52718 5.1025 2.4375 3.84594C2.39312 3.20219 2.59375 2.60687 3 2.17031C3.40187 1.73812 3.96875 1.5 4.59375 1.5C5.21875 1.5 5.78125 1.73938 6.18531 2.17406C6.59469 2.61406 6.79468 3.20812 6.74781 3.84656C6.65812 5.10281 5.69156 6.125 4.59375 6.125ZM6.64562 7.10781C6.09593 6.83906 5.3825 6.70469 4.59406 6.70469C3.67343 6.70469 2.77937 6.94469 2.07625 7.38031C1.27906 7.875 0.742808 8.59531 0.526245 9.465C0.494553 9.59009 0.491555 9.72073 0.517477 9.84715C0.543398 9.97356 0.597567 10.0925 0.675933 10.195C0.750291 10.2905 0.845553 10.3676 0.954391 10.4205C1.06323 10.4733 1.18274 10.5006 1.30375 10.5H4.7725C4.83104 10.5 4.88773 10.4794 4.93267 10.4419C4.97762 10.4044 5.00797 10.3523 5.01843 10.2947C5.02187 10.275 5.02625 10.2553 5.03125 10.2359C5.29625 9.17156 5.91718 8.27219 6.83469 7.61656C6.86843 7.59224 6.89557 7.55988 6.91365 7.52241C6.93173 7.48495 6.94018 7.44356 6.93822 7.40201C6.93627 7.36046 6.92397 7.32005 6.90246 7.28445C6.88094 7.24884 6.85088 7.21917 6.815 7.19812C6.76594 7.16937 6.70969 7.13906 6.64562 7.10781Z" fill="#34A6D7"/>
</svg>
