<svg width="854" height="371" viewBox="0 0 854 371" fill="none" xmlns="http://www.w3.org/2000/svg">
<ellipse cx="127.5" cy="127" rx="20.5" ry="20" fill="#F8F8F9"/>
<ellipse cx="158.211" cy="114.974" rx="32.2105" ry="31.9737" fill="#F8F8F9"/>
<circle cx="300.079" cy="106.026" r="41.9211" fill="#F8F8F9"/>
<circle cx="220.974" cy="88.9737" r="58.9737" fill="#F8F8F9"/>
<path d="M305.108 147.264L126 147C121.362 124.865 213.23 115.027 259.784 112.743L303 123.547L305.108 147.264Z" fill="#F8F8F9"/>
<ellipse cx="-9.13617" cy="224.136" rx="11.8638" ry="11.5745" fill="#F8F8F9"/>
<ellipse cx="8.63671" cy="217.176" rx="18.641" ry="18.5039" fill="#F8F8F9"/>
<circle cx="90.7393" cy="211.998" r="24.2607" fill="#F8F8F9"/>
<circle cx="44.9592" cy="202.129" r="34.1295" fill="#F8F8F9"/>
<path d="M93.6498 235.863L-10.0043 235.711C-12.6883 222.901 40.4776 217.207 67.4195 215.885L92.4298 222.138L93.6498 235.863Z" fill="#F8F8F9"/>
<ellipse cx="159.864" cy="276.136" rx="11.8638" ry="11.5745" fill="#F8F8F9"/>
<ellipse cx="177.637" cy="269.176" rx="18.641" ry="18.5039" fill="#F8F8F9"/>
<circle cx="259.739" cy="263.998" r="24.2607" fill="#F8F8F9"/>
<circle cx="213.959" cy="254.129" r="34.1295" fill="#F8F8F9"/>
<path d="M262.65 287.863L158.996 287.711C156.312 274.901 209.478 269.207 236.42 267.885L261.43 274.138L262.65 287.863Z" fill="#F8F8F9"/>
<ellipse cx="729.864" cy="358.136" rx="11.8638" ry="11.5745" fill="#F8F8F9"/>
<ellipse cx="747.637" cy="351.176" rx="18.641" ry="18.5039" fill="#F8F8F9"/>
<circle cx="829.739" cy="345.998" r="24.2607" fill="#F8F8F9"/>
<circle cx="783.959" cy="336.129" r="34.1295" fill="#F8F8F9"/>
<path d="M832.65 369.863L728.996 369.711C726.312 356.901 779.478 351.207 806.42 349.885L831.43 356.138L832.65 369.863Z" fill="#F8F8F9"/>
<path d="M285.881 16.9846L313.878 5.40875C316.641 4.20293 326.014 0.344305 326.014 0.344305C326.014 0.344305 330.339 -1.34384 329.979 2.75594C329.859 4.44409 328.897 10.3526 327.936 16.7435L324.932 35.6748C324.932 35.6748 324.692 38.4482 322.649 38.9305C320.606 39.4129 317.242 37.2424 316.641 36.7601C316.161 36.3983 307.63 30.9721 304.506 28.3193C303.665 27.5958 302.703 26.1488 304.626 24.4607C308.951 20.4815 314.118 15.5376 317.242 12.4025C318.684 10.9555 320.126 7.57922 314.118 11.679L297.176 23.1343C297.176 23.1343 295.254 24.3401 291.649 23.2549C288.044 22.1696 283.839 20.7227 283.839 20.7227C283.839 20.7227 280.955 18.9139 285.881 16.9846Z" fill="#F8F8F9"/>
</svg>
