<svg width="496" height="288" viewBox="0 0 496 288" fill="none" xmlns="http://www.w3.org/2000/svg">
<ellipse cx="20.5" cy="97" rx="20.5" ry="20" fill="#F8F8F9"/>
<ellipse cx="51.2105" cy="84.9737" rx="32.2105" ry="31.9737" fill="#F8F8F9"/>
<circle cx="193.079" cy="76.0265" r="41.9211" fill="#F8F8F9"/>
<circle cx="113.974" cy="58.9737" r="58.9737" fill="#F8F8F9"/>
<path d="M198.108 117.263L19 117C14.3622 94.8647 106.23 85.0269 152.784 82.7432L196 93.5472L198.108 117.263Z" fill="#F8F8F9"/>
<ellipse cx="362.864" cy="275.136" rx="11.8638" ry="11.5745" fill="#F8F8F9"/>
<ellipse cx="380.637" cy="268.176" rx="18.641" ry="18.5039" fill="#F8F8F9"/>
<circle cx="462.739" cy="262.998" r="24.2607" fill="#F8F8F9"/>
<circle cx="416.959" cy="253.129" r="34.1295" fill="#F8F8F9"/>
<path d="M465.65 286.863L361.996 286.711C359.312 273.901 412.478 268.207 439.42 266.885L464.43 273.138L465.65 286.863Z" fill="#F8F8F9"/>
<path d="M451.881 172.985L479.878 161.409C482.641 160.203 492.014 156.344 492.014 156.344C492.014 156.344 496.339 154.656 495.979 158.756C495.859 160.444 494.897 166.353 493.936 172.743L490.932 191.675C490.932 191.675 490.692 194.448 488.649 194.931C486.606 195.413 483.242 193.242 482.641 192.76C482.161 192.398 473.63 186.972 470.506 184.319C469.665 183.596 468.703 182.149 470.626 180.461C474.951 176.481 480.118 171.538 483.242 168.403C484.684 166.956 486.126 163.579 480.118 167.679L463.176 179.134C463.176 179.134 461.254 180.34 457.649 179.255C454.044 178.17 449.839 176.723 449.839 176.723C449.839 176.723 446.955 174.914 451.881 172.985Z" fill="#F8F8F9"/>
</svg>
