<svg width="1440" height="681" viewBox="0 0 1440 681" fill="none" xmlns="http://www.w3.org/2000/svg">
<path d="M0 0H1440V629C1440 657.719 1416.72 681 1388 681H52C23.2812 681 0 657.719 0 629V0Z" fill="url(#paint0_linear_101_2)"/>
<mask id="mask0_101_2" style="mask-type:alpha" maskUnits="userSpaceOnUse" x="0" y="0" width="1440" height="681">
<path d="M0 0H1440V629C1440 657.719 1416.72 681 1388 681H52C23.2812 681 0 657.719 0 629V0Z" fill="#B3B3B3"/>
</mask>
<g mask="url(#mask0_101_2)">
<g filter="url(#filter0_f_101_2)">
<ellipse cx="414" cy="450" rx="241" ry="231" fill="#C2E6FF"/>
</g>
<circle cx="147.648" cy="694.15" r="38.6478" fill="#7DC2E4"/>
<ellipse cx="206.968" cy="673.927" rx="61.1174" ry="60.668" fill="#7DC2E4"/>
<circle cx="473.457" cy="653.255" r="79.5425" fill="#7DC2E4"/>
<circle cx="323.36" cy="620.899" r="111.899" fill="#7DC2E4"/>
<circle cx="1121.65" cy="682.15" r="38.6478" fill="#5BB8E2"/>
<ellipse cx="1180.97" cy="661.927" rx="61.1174" ry="60.668" fill="#5BB8E2"/>
<circle cx="1447.46" cy="641.255" r="79.5425" fill="#5BB8E2"/>
<circle cx="1297.36" cy="608.899" r="111.899" fill="#5BB8E2"/>
<circle cx="470.368" cy="343.579" r="20.3684" fill="#7DC2E4"/>
<ellipse cx="501.632" cy="332.921" rx="32.2105" ry="31.9737" fill="#7DC2E4"/>
<circle cx="642.079" cy="322.027" r="41.9211" fill="#7DC2E4"/>
<circle cx="562.974" cy="304.974" r="58.9737" fill="#7DC2E4"/>
<path d="M647.108 363.263H467.919C463.281 341.128 555.23 331.027 601.784 328.743L645 339.547L647.108 363.263Z" fill="#7DC2E4"/>
</g>
<path d="M1305.58 313.663L1359.78 291.401C1365.14 289.083 1383.28 281.662 1383.28 281.662C1383.28 281.662 1391.66 278.416 1390.96 286.3C1390.73 289.546 1388.86 300.909 1387 313.199L1381.19 349.605C1381.19 349.605 1380.72 354.939 1376.77 355.866C1372.81 356.794 1366.3 352.62 1365.14 351.692C1364.2 350.997 1347.69 340.562 1341.64 335.46C1340.01 334.069 1338.15 331.286 1341.87 328.04C1350.25 320.387 1360.25 310.88 1366.3 304.851C1369.09 302.068 1371.88 295.575 1360.25 303.46L1327.45 325.489C1327.45 325.489 1323.73 327.808 1316.75 325.721C1309.77 323.634 1301.62 320.851 1301.62 320.851C1301.62 320.851 1296.04 317.373 1305.58 313.663V313.663Z" fill="#5BB8E2"/>
<path d="M586.617 192.34L621.761 177.796C625.231 176.281 636.996 171.433 636.996 171.433C636.996 171.433 642.426 169.312 641.973 174.463C641.822 176.584 640.616 184.007 639.409 192.037L635.638 215.822C635.638 215.822 635.337 219.307 632.772 219.913C630.208 220.519 625.985 217.792 625.231 217.186C624.627 216.731 613.918 209.914 609.996 206.581C608.941 205.672 607.734 203.854 610.147 201.733C615.577 196.733 622.063 190.522 625.985 186.583C627.795 184.765 629.605 180.523 622.063 185.674L600.796 200.066C600.796 200.066 598.382 201.581 593.857 200.218C589.332 198.854 584.053 197.036 584.053 197.036C584.053 197.036 580.433 194.764 586.617 192.34V192.34Z" fill="#7DC2E4"/>
<defs>
<filter id="filter0_f_101_2" x="-228" y="-182" width="1284" height="1264" filterUnits="userSpaceOnUse" color-interpolation-filters="sRGB">
<feFlood flood-opacity="0" result="BackgroundImageFix"/>
<feBlend mode="normal" in="SourceGraphic" in2="BackgroundImageFix" result="shape"/>
<feGaussianBlur stdDeviation="200.5" result="effect1_foregroundBlur_101_2"/>
</filter>
<linearGradient id="paint0_linear_101_2" x1="1440" y1="29" x2="716.669" y2="1066.45" gradientUnits="userSpaceOnUse">
<stop stop-color="#37AEE2"/>
<stop offset="1" stop-color="#1E96C8"/>
</linearGradient>
</defs>
</svg>
